<svg id="wave" style="transform:rotate(0deg); transition: 0.3s" viewBox="0 0 1440 370" version="1.1" xmlns="http://www.w3.org/2000/svg"><defs><linearGradient id="sw-gradient-0" x1="0" x2="0" y1="1" y2="0"><stop stop-color="rgba(105, 51, 255, 1)" offset="0%"></stop><stop stop-color="rgba(105, 51, 255, 1)" offset="100%"></stop></linearGradient></defs><path style="transform:translate(0, 0px); opacity:1" fill="url(#sw-gradient-0)" d="M0,0L40,43.2C80,86,160,173,240,209.7C320,247,400,234,480,240.5C560,247,640,271,720,234.3C800,197,880,99,960,92.5C1040,86,1120,173,1200,209.7C1280,247,1360,234,1440,228.2C1520,222,1600,222,1680,215.8C1760,210,1840,197,1920,203.5C2000,210,2080,234,2160,209.7C2240,185,2320,111,2400,123.3C2480,136,2560,234,2640,277.5C2720,321,2800,308,2880,252.8C2960,197,3040,99,3120,92.5C3200,86,3280,173,3360,172.7C3440,173,3520,86,3600,43.2C3680,0,3760,0,3840,55.5C3920,111,4000,222,4080,259C4160,296,4240,259,4320,252.8C4400,247,4480,271,4560,259C4640,247,4720,197,4800,160.3C4880,123,4960,99,5040,129.5C5120,160,5200,247,5280,265.2C5360,284,5440,234,5520,209.7C5600,185,5680,185,5720,185L5760,185L5760,370L5720,370C5680,370,5600,370,5520,370C5440,370,5360,370,5280,370C5200,370,5120,370,5040,370C4960,370,4880,370,4800,370C4720,370,4640,370,4560,370C4480,370,4400,370,4320,370C4240,370,4160,370,4080,370C4000,370,3920,370,3840,370C3760,370,3680,370,3600,370C3520,370,3440,370,3360,370C3280,370,3200,370,3120,370C3040,370,2960,370,2880,370C2800,370,2720,370,2640,370C2560,370,2480,370,2400,370C2320,370,2240,370,2160,370C2080,370,2000,370,1920,370C1840,370,1760,370,1680,370C1600,370,1520,370,1440,370C1360,370,1280,370,1200,370C1120,370,1040,370,960,370C880,370,800,370,720,370C640,370,560,370,480,370C400,370,320,370,240,370C160,370,80,370,40,370L0,370Z"></path><defs><linearGradient id="sw-gradient-1" x1="0" x2="0" y1="1" y2="0"><stop stop-color="rgba(84, 41, 204, 1)" offset="0%"></stop><stop stop-color="rgba(84, 41, 204, 1)" offset="100%"></stop></linearGradient></defs><path style="transform:translate(0, 50px); opacity:0.9" fill="url(#sw-gradient-1)" d="M0,74L40,117.2C80,160,160,247,240,259C320,271,400,210,480,172.7C560,136,640,123,720,154.2C800,185,880,259,960,271.3C1040,284,1120,234,1200,197.3C1280,160,1360,136,1440,129.5C1520,123,1600,136,1680,135.7C1760,136,1840,123,1920,111C2000,99,2080,86,2160,92.5C2240,99,2320,123,2400,166.5C2480,210,2560,271,2640,302.2C2720,333,2800,333,2880,326.8C2960,321,3040,308,3120,289.8C3200,271,3280,247,3360,222C3440,197,3520,173,3600,148C3680,123,3760,99,3840,129.5C3920,160,4000,247,4080,283.7C4160,321,4240,308,4320,283.7C4400,259,4480,222,4560,228.2C4640,234,4720,284,4800,277.5C4880,271,4960,210,5040,154.2C5120,99,5200,49,5280,80.2C5360,111,5440,222,5520,234.3C5600,247,5680,160,5720,117.2L5760,74L5760,370L5720,370C5680,370,5600,370,5520,370C5440,370,5360,370,5280,370C5200,370,5120,370,5040,370C4960,370,4880,370,4800,370C4720,370,4640,370,4560,370C4480,370,4400,370,4320,370C4240,370,4160,370,4080,370C4000,370,3920,370,3840,370C3760,370,3680,370,3600,370C3520,370,3440,370,3360,370C3280,370,3200,370,3120,370C3040,370,2960,370,2880,370C2800,370,2720,370,2640,370C2560,370,2480,370,2400,370C2320,370,2240,370,2160,370C2080,370,2000,370,1920,370C1840,370,1760,370,1680,370C1600,370,1520,370,1440,370C1360,370,1280,370,1200,370C1120,370,1040,370,960,370C880,370,800,370,720,370C640,370,560,370,480,370C400,370,320,370,240,370C160,370,80,370,40,370L0,370Z"></path></svg>